<?xml version="1.0" encoding="UTF-8" standalone="no"?>
<svg
   width="512px"
   height="512px"
   viewBox="0 0 512 512"
   version="1.1"
   id="svg39"
   sodipodi:docname="settings.svg"
   inkscape:version="1.2 (dc2aedaf03, 2022-05-15)"
   xmlns:inkscape="http://www.inkscape.org/namespaces/inkscape"
   xmlns:sodipodi="http://sodipodi.sourceforge.net/DTD/sodipodi-0.dtd"
   xmlns="http://www.w3.org/2000/svg"
   xmlns:svg="http://www.w3.org/2000/svg">
  <defs
     id="defs43">
    <clipPath
       clipPathUnits="userSpaceOnUse"
       id="clipPath545">
      <path
         id="path547"
         style="fill:#ff0000;fill-opacity:1;fill-rule:nonzero;stroke:none"
         d="M -15.999594,-16 V 444 H 427.24259 V -16 Z M 341.29728,184.73828 c 3.61553,-0.0468 7.22802,0.31779 10.83984,0.45703 2.70401,0.0385 5.41058,-0.10912 8.11329,-0.20312 2.64273,-0.0955 5.28743,-0.15611 7.93164,-0.19141 3.74054,0.0193 7.50593,0.22497 11.14843,1.14453 0.99268,0.2506 1.95849,0.59908 2.9375,0.89844 7.10992,3.40963 8.34776,3.28531 14.19141,12.43359 1.90949,2.98931 2.38163,5.57434 2.56445,8.29883 0.32012,1.30637 0.59742,2.61807 0.80664,3.96094 0.0539,0.35478 0.062,0.71395 0.0996,1.07031 0.26444,0.65699 0.49298,1.13912 1.04493,2.79883 0.61041,2.16276 1.21824,4.31794 1.71289,6.51172 0.43105,2.39272 0.72728,3.96929 1.07031,6.4668 0.47611,3.14026 0.32023,6.29806 -0.006,9.43945 0.32134,2.11047 0.5371,4.23441 0.80664,6.35156 0.40544,2.84015 0.70947,5.68425 0.90625,8.54688 0.22668,4.28709 0.28478,8.58094 0.33398,12.87304 -0.0833,3.39532 -0.0868,6.78988 -0.041,10.18555 0.0196,2.10305 0.21291,4.19932 0.33203,6.29883 0.2617,3.42528 0.1077,6.85282 -0.25,10.26367 -0.1603,1.33406 -0.29489,2.67037 -0.33789,4.01367 -0.0986,2.86901 -0.10358,5.76608 -0.62109,8.60156 -0.24648,1.35057 -0.616,2.67577 -0.92383,4.01368 -0.95706,2.7236 -1.24987,3.48596 -1.83203,4.70117 -0.16404,2.5713 -0.078,5.15637 -0.0215,7.73047 0.0828,3.23332 0.15237,6.46704 0.19727,9.70117 0.0969,3.69838 0.0663,7.38534 -0.28125,11.07031 -0.20592,1.78719 -0.38461,3.57615 -0.50586,5.3711 -0.039,2.30711 -0.22668,4.59612 -0.50586,6.88671 -0.26383,1.39014 -0.35967,2.79795 -0.44727,4.20703 -0.10004,1.58404 -0.12228,3.17125 -0.14648,4.75782 -0.0583,4.23702 -1.0358,8.36971 -2.26953,12.39648 -0.5225,1.27005 -0.97767,2.5688 -1.56836,3.8086 -3.58531,7.52514 -8.98384,11.46212 -17.6875,15.00781 -5.38209,2.19254 -11.1665,0.59932 -16.46094,-0.42774 -8.39545,-2.40621 -16.57506,-5.77026 -23.62305,-11.01953 -1.65409,-1.232 -3.16292,-2.64841 -4.74414,-3.97265 -0.21181,-0.20801 -0.41606,-0.42544 -0.62695,-0.63477 -2.27,1.88343 -4.55751,3.74686 -6.52734,5.94922 -2.0462,2.4629 -4.02817,5.20939 -6.68164,7.06836 -2.12675,1.48992 -4.11428,4.17266 -6.70313,3.9707 -1.45776,-0.11372 -2.90287,-0.31297 -4.3418,-0.54687 -2.04231,1.4437 -4.45386,2.28207 -6.67968,3.42383 -0.55011,0.16596 -1.10355,0.31938 -1.65039,0.49804 4.89408,12.22129 -3.09853,26.97886 -23.97071,30.89844 -6.49218,4.08521 -13.00416,8.22958 -20.38672,9.24609 -1.22748,2.29961 -5.13349,3.80292 -13.16406,4.07422 -2.90247,0.0981 -6.04728,0.31173 -8.88867,-0.52734 -2.30169,-0.6797 -5.86146,-0.29094 -6.74219,-2.52344 -4.52848,-11.47894 -5.64722,-24.02649 -8.4707,-36.03906 0.0362,-0.038 0.0733,-0.0751 0.10937,-0.11328 -0.43264,-0.64566 -0.86715,-1.29145 -1.29492,-1.9375 -2.46839,-4.23258 -4.86851,-8.53417 -6.49414,-13.17774 -0.53065,-1.51579 -1.04523,-3.04887 -1.35351,-4.625 -0.41938,-2.1441 -0.5479,-4.33451 -0.82227,-6.50195 -1.25004,-9.87481 0.17184,-13.72096 3.20703,-13.98828 6.62485,-0.58348 20.93128,15.86561 31.91992,23.87304 0.12594,-0.0371 0.24239,-0.0935 0.36914,-0.1289 0.81622,-0.20099 1.62936,-0.41928 2.44922,-0.60352 -0.59985,-1.83103 -1.1141,-3.67629 -1.2539,-5.58593 -0.3272,-4.46949 0.23384,-9.0062 1.14257,-13.39454 0.56587,-2.73244 1.95661,-5.24187 3.23047,-7.72461 3.38436,-6.59603 8.50896,-12.07958 13.99024,-16.96093 2.06495,-1.50508 4.00926,-3.19259 6.19531,-4.51563 6.26432,-3.79127 12.28853,-6.39371 19.83008,-6.82226 5.36336,-0.30478 11.26297,0.70425 16.42383,2.98437 0.24583,0.0584 0.49724,0.12885 0.74804,0.19922 1.2892,-1.21695 2.60274,-2.40548 3.98047,-3.51953 4.38977,-3.54965 9.0065,-6.51949 14.26758,-8.65039 2.45545,-0.58809 4.84629,-1.59118 7.36523,-1.76367 3.28009,-0.22461 6.6377,-0.12509 9.84766,0.58593 3.50863,0.77725 6.71976,2.2929 9.60352,4.28907 -0.0262,-1.16551 -0.0428,-2.33067 -0.0723,-3.4961 -0.12547,-5.91762 -0.21735,-11.87148 0.75977,-17.73242 0.47299,-2.39877 0.77432,-3.81026 1.21289,-5.3457 -9.68675,-7.61612 -19.80065,-14.68625 -29.8086,-21.86719 -9.19623,12.66727 -19.55217,18.11877 -28.30859,18.2207 -1.25741,1.13121 -2.54255,2.21478 -3.76367,3.2461 -3.09615,2.61485 -7.54845,3.15669 -11.55078,3.79297 -0.49769,0.0791 -0.94719,0.10212 -1.41993,0.15234 -4.36496,3.25696 -7.05897,4.74722 -15.07812,5.45703 -0.89307,0.0791 -1.67221,0.0368 -2.4668,0.0117 3.49164,28.02043 -19.13005,40.45884 -35.92383,26.89648 -9.85986,-3.53424 -17.8244,-15.15764 -17.03906,-34.24023 -0.16131,-0.82375 -0.32275,-1.6469 -0.44531,-2.47852 -0.53521,-4.4061 -0.69191,-8.82291 -0.88086,-13.2539 -0.25018,-3.6865 -0.57181,-7.37017 -1.24609,-11.00781 -0.57943,-4.01361 -0.90929,-8.04175 -1.19336,-12.08594 -1.24487,-17.72237 4.07121,-29.35089 11.64648,-34.70313 0.26911,-1.52356 0.57649,-3.04225 0.97266,-4.54297 0.44036,-2.00505 0.86894,-4.17999 1.61523,-6.15625 0.50615,-1.34028 1.09369,-2.64843 1.64063,-3.97265 2.09626,-4.44316 5.02185,-8.39338 8.76757,-11.58789 -1.05634,-0.89595 -2.12575,-1.77696 -3.15039,-2.70899 -0.81296,-0.73958 -1.55583,-1.55394 -2.33398,-2.33007 -2.19021,-2.18478 -1.44943,-4.0537 0.30078,-4.32813 0.26253,-0.0412 0.54812,-0.0467 0.84961,-0.0117 0.90446,0.10492 1.95473,0.57215 2.97656,1.51758 0.56135,0.51938 1.10881,1.05217 1.6836,1.55664 6.83422,5.99803 4.96265,4.28838 3.85351,3.2793 0.98468,-0.57323 1.97296,-1.08526 3.23047,-1.75586 1.53712,-0.76751 3.09418,-1.4909 4.64649,-2.22657 0.28923,-0.13701 1.5001,-0.6124 0.86132,-0.49609 3.10676,-1.92195 6.40944,-3.57084 9.89453,-4.69141 2.72425,-0.87587 3.28825,-0.93361 5.91797,-1.49609 4.76648,-0.94196 9.62847,-0.94862 14.46094,-0.77539 2.87352,0.14362 5.75347,0.0734 8.62891,0.0371 3.69985,-0.12906 7.39156,0.0215 11.08398,0.25 3.75672,0.25292 7.5203,0.4112 11.2793,0.625 3.43369,0.19431 6.87107,0.30805 10.30859,0.40625 0.19443,-0.007 0.39101,0.0173 0.58203,-0.0195 0.22131,-0.0427 -0.87493,0.0431 -0.67382,-0.0586 0.24751,-0.12523 0.5401,-0.12739 0.8125,-0.17969 2.35575,-0.45226 2.86572,-0.51376 5.33789,-0.91016 5.64766,-0.89743 11.32448,-1.5542 17.02343,-2.01172 1.20589,-0.13019 2.41201,-0.19143 3.61719,-0.20703 z m 57.9082,26.41797 c 0.0122,0.3695 0.0189,0.70875 0.0371,1.0918 0.009,0.20629 0.0382,-0.41364 0.0176,-0.61914 -0.0158,-0.15782 -0.0381,-0.31493 -0.0547,-0.47266 z m -49.28711,2.01367 c 0.0558,1.65438 0.15556,3.13093 0.62305,4.73633 -0.20921,-1.57895 -0.42892,-3.15551 -0.62305,-4.73633 z m 50.20118,1.46094 c 0.018,0.24725 0.051,0.49314 0.0703,0.74023 0.013,0.1664 -0.005,-0.33491 -0.0293,-0.5 -0.0154,-0.10374 -0.0264,-0.14405 -0.041,-0.24023 z m -58.5293,19.66016 c -4.41698,0.34353 -8.81444,0.86606 -13.19141,1.55664 -0.0749,0.0116 -0.14975,0.0253 -0.22461,0.0371 0.72725,1.27084 1.44338,2.55112 2.25977,3.74218 0.76979,2.52606 1.86666,4.97462 2.30859,7.57813 1.60567,9.45934 -0.44387,18.19377 -5.19922,26.14648 9.55599,6.85301 19.21493,13.59803 28.50977,20.8086 0.11286,-2.40497 0.28402,-4.80701 0.58008,-7.19727 l 0.0488,-0.38867 c 0.004,0.0882 -0.006,0.35017 0.0117,0.26367 0.0285,-0.13726 -0.007,-0.2827 0.0215,-0.41992 0.0127,-0.0602 0.0298,0.24314 0.0293,0.18164 -0.002,-0.23533 -0.0655,-1.50888 -0.0762,-1.73242 -0.15678,-2.80611 -0.40325,-5.61139 -0.40625,-8.42383 -0.0458,-3.42844 -0.0702,-6.85566 0.041,-10.2832 -0.039,-3.455 -0.0825,-6.91141 -0.24219,-10.36328 -0.07,-1.80558 -0.40814,-3.58122 -0.60742,-5.375 -0.22367,-1.75992 -0.3905,-3.52612 -0.63281,-5.28321 -0.5565,-3.47144 -0.805,-6.97996 -0.46094,-10.47851 -1.54912,0.0189 -3.09789,0.0412 -4.64648,-0.0254 -2.70544,-0.14399 -5.41208,-0.48138 -8.12305,-0.34375 z m 27.60742,0.0273 c 0.12567,0.0195 0.11006,0.0215 0.26172,0.0449 0.15652,0.0241 0.6343,0.0107 0.47656,-0.004 -0.24548,-0.0221 -0.49201,-0.0296 -0.73828,-0.041 z m -84.2168,13.66797 c -0.0493,0.0955 -0.10789,0.1863 -0.15039,0.28515 -0.0558,0.12983 -0.0859,0.24482 -0.13671,0.3711 0.12477,-0.20165 0.23932,-0.4013 0.35742,-0.60156 -0.0233,-0.0185 -0.047,-0.0362 -0.0703,-0.0547 z m 2.17774,106.95703 c -0.10647,0.10825 -0.25186,0.2528 -0.34961,0.35156 -0.0918,0.0928 0.1982,-0.17248 0.2832,-0.27148 0.0226,-0.0263 0.0439,-0.0537 0.0664,-0.0801 z m 63.82226,5.89258 c -0.0483,0.22927 -0.11669,0.55097 -0.084,0.41406 0.14636,-0.61147 0.0547,-0.16389 0.0781,-0.24414 0.001,-0.0567 0.005,-0.11326 0.006,-0.16992 z m -69.25781,0.54297 c 0.0532,-0.14088 -0.13737,0.2679 -0.20117,0.40429 -0.0812,0.17358 -0.18307,0.34074 -0.23437,0.52539 -0.0842,0.30308 -0.0734,0.30721 -0.13672,0.53711 0.23599,-0.58989 0.26871,-0.66214 0.57226,-1.46679 z m 45.88281,18.4414 c -0.18473,0.4783 -0.34458,0.96642 -0.55078,1.43555 -0.21204,0.48243 0.50227,-0.77988 0.55078,-1.43555 z M 253.0297,429.9043 c 1.62178,1.94386 2.95869,3.80308 3.53125,5.4375 0.20871,-0.0246 0.41862,-0.0469 0.63672,-0.0801 0.64359,-0.71941 1.06033,-1.21467 2.48828,-2.69531 -0.1433,-0.63511 -0.23201,-1.28631 -0.36718,-1.92383 -2.11181,-0.14007 -4.21362,-0.37048 -6.28907,-0.73828 z m -10.28711,0.39648 c 0.20924,0.20751 0.27251,0.29025 0.51758,0.52734 0.48299,0.46736 0.92542,0.8203 1.36328,1.13672 -0.61506,-0.60148 -1.24251,-1.15457 -1.88086,-1.66406 z m 8.69336,9.42969 c -0.13963,9.5e-4 -0.22264,0.0376 -0.2207,0.125 0.002,0.0917 0.17386,-0.0643 0.25586,-0.10547 0.007,-0.004 0.0142,-0.008 0.0215,-0.0117 -0.0151,-5.9e-4 -0.0426,-0.008 -0.0566,-0.008 z" />
    </clipPath>
    <clipPath
       clipPathUnits="userSpaceOnUse"
       id="clipPath719">
      <path
         id="path721"
         style="fill:#ff0000;fill-opacity:1;fill-rule:nonzero;stroke:none"
         d="M 34.378906,26 V 486 H 312.92188 c -1.63835,-0.48928 -3.27223,-0.99601 -4.88672,-1.57031 -1.69801,-0.59238 -3.35433,-1.30222 -4.97071,-2.08985 -3.53757,-0.007 -7.07326,-0.083 -10.60156,-0.33593 -2.77086,-0.30841 -4.16295,-0.36134 -6.91992,-1.11133 -3.56124,-0.96878 -6.78327,-2.73838 -9.66211,-5.01953 -0.68526,-0.53713 -1.38995,-1.05132 -2.05664,-1.61133 -1.83654,-1.54265 -3.38499,-2.98773 -4.9375,-4.8457 -2.56293,-3.06726 -4.50503,-6.56488 -6.01953,-10.25196 -0.44484,-1.33023 -0.94978,-2.64124 -1.33399,-3.99023 -0.76101,-2.67204 -1.08181,-4.70883 -1.49609,-7.41797 -0.66566,-4.35309 -1.20481,-8.72899 -1.51172,-13.12305 -0.074,-1.73481 -0.1938,-3.46889 -0.2207,-5.20508 -0.0537,-3.46693 0.27131,-6.92386 0.29101,-10.38867 0.006,-1.02326 -0.0341,-2.04711 -0.0469,-3.07031 -0.0149,-1.19101 -0.0251,-2.38123 -0.0371,-3.57227 -0.0149,-7.23912 0.0241,-14.4775 0.19531,-21.71484 -0.0807,-7.06646 -0.75961,-14.12383 -0.45898,-21.19531 0.0612,-1.12135 0.11729,-2.24221 0.18359,-3.36328 0.0285,-0.48258 0.24991,-3.61122 0.25391,-4.3125 0.0166,-2.94743 -0.28548,-5.89396 -0.26758,-8.8418 -0.11476,-6.57709 -0.11638,-13.15467 -0.17188,-19.73242 -0.0486,-6.40558 -0.0373,-12.81227 0.10547,-19.2168 0.15872,-6.12053 0.4627,-12.23364 0.97266,-18.33594 0.3506,-4.12585 0.71705,-8.24973 1.23047,-12.35937 0.50811,-4.06712 0.46318,-3.31838 1.01953,-6.9707 0.13156,-0.86366 0.25141,-1.72922 0.37695,-2.59375 0.51715,-6.45763 0.96798,-12.92484 1.17969,-19.40039 0.16166,-4.2404 0.38902,-8.50186 1.5625,-12.60743 0.55022,-1.82762 0.59505,-2.10062 1.29297,-3.91406 0.9715,-2.5243 2.1886,-4.95121 3.39258,-7.36914 0.41702,-0.73772 0.81828,-1.48483 1.25195,-2.21289 2.01955,-3.39046 4.3846,-6.59325 7.25,-9.31836 2.15269,-1.93791 4.39482,-3.82666 7.04883,-5.04883 0.18123,-0.0987 0.51584,-0.34649 0.73828,-0.40039 0.0141,-0.003 -0.0272,0.05 -0.0156,0.041 0.17763,-0.13267 1.1068,-0.90245 1.1875,-0.96875 2.23209,-1.78924 4.59884,-3.40363 7.17578,-4.66211 1.6031,-0.76827 1.88181,-0.94472 3.60547,-1.58789 2.21115,-0.82506 4.52439,-1.35989 6.85743,-1.69336 0.62386,-0.072 1.24738,-0.1626 1.87304,-0.2168 2.07003,-0.17938 4.14013,-0.10826 6.21094,0.004 2.00294,0.0807 4.01229,0.0349 6.01562,0 2.84975,-0.043 5.6993,-0.0159 8.54883,-0.0801 2.55298,-0.0876 5.0929,-0.35889 7.6211,-0.72266 3.58231,-0.49945 7.17486,-1.00304 10.79492,-1.11523 4.49789,-0.1394 8.24048,0.55752 11.22656,1.77929 3.00124,-1.14192 6.8129,-1.65717 11.4082,-1.21093 2.53763,0.24642 5.07454,0.4996 7.60938,0.77343 2.27307,0.23941 4.54527,0.52107 6.82227,0.72071 1.42051,0.12456 2.93741,0.19688 4.35546,0.27148 0.91399,0.0481 1.82812,0.0938 2.74219,0.14063 7.27225,0.33354 14.55224,0.48552 21.83203,0.51562 3.40695,-0.0324 3.2199,0.0247 6.5,-0.20703 0.36203,-0.0256 5.58874,-0.48946 5.78711,-0.49023 4.31291,-0.0168 3.79922,0.0208 7.12695,0.79882 4.25424,1.32406 8.44948,2.82363 12.69922,4.16211 2.26956,0.75154 4.40381,1.43029 6.64063,2.29297 4.34738,1.67666 8.51368,3.7929 12.21875,6.64063 2.74997,2.28158 4.44747,3.42178 6.60742,6.4707 1.06805,1.50763 1.94911,3.14934 2.7207,4.82813 0.57053,1.24134 0.91194,2.57697 1.28711,3.89062 0.27518,0.96354 1.40821,6.26078 1.57813,7.04297 1.32776,6.46951 2.8604,12.96125 2.64844,19.61719 -0.0428,1.34271 -0.2516,2.61853 -0.5,3.88867 0.2552,0.28721 0.5114,0.52948 0.76757,0.7793 V 26 Z M 416.32422,236.96094 c -4.25595,0.0605 -8.5101,0.15768 -12.76367,0.31445 -6.93446,0.23623 -13.86938,0.44797 -20.80664,0.58399 -5.98871,0.18909 -11.97409,0.59175 -17.96875,0.47265 -5.26948,-0.11599 -10.53117,-0.41149 -15.80078,-0.51562 -5.6239,-0.0707 -11.24459,-0.23126 -16.86524,-0.4336 -5.48859,-0.16483 -10.97978,-0.24104 -16.4707,-0.30664 -0.0715,0.57453 -0.18318,1.14777 -0.24414,1.72266 -0.93185,0.0742 -1.8618,0.16735 -2.79492,0.22265 -1.85053,0.10968 -3.70418,0.13909 -5.55665,0.20899 -2.66101,0.10043 -5.32164,0.22109 -7.98242,0.32812 -0.77674,0.0133 -1.55335,0.0259 -2.33008,0.0391 -1.37364,0.0234 -2.64794,-0.0535 -3.86914,-0.17969 -0.67378,0.99414 -1.29487,2.02633 -1.86132,3.08008 -0.73003,1.58421 -1.5345,3.14431 -2.14454,4.78125 -0.17239,0.46259 -0.28832,0.93833 -0.41601,1.41406 -0.48806,2.15372 -0.51004,4.37393 -0.58594,6.57031 -0.2225,6.83093 -0.70028,13.65267 -1.24219,20.46485 -0.17619,1.33129 -0.33614,2.6649 -0.52734,3.99414 -0.70081,4.87214 -0.42106,2.12005 -1.01563,6.93945 -0.45574,3.69438 -0.77884,7.40094 -1.09179,11.10937 -0.46736,5.61859 -0.7498,11.24749 -0.89258,16.88282 -0.1354,6.13025 -0.14452,12.26136 -0.0977,18.39258 0.057,6.49569 0.0531,12.99128 0.16797,19.48632 0.0299,1.05208 0.055,2.10426 0.0879,3.15625 0.0126,0.40431 0.17583,4.87985 0.17383,5.40235 -0.014,3.2499 -0.28873,6.49682 -0.46484,9.74023 -0.18603,5.45139 0.29163,10.89302 0.44726,16.33789 0.0302,1.05864 0.0308,2.11879 0.0469,3.17774 -0.0103,0.99915 -0.0161,1.997 -0.0312,2.99609 -0.0356,2.34225 -0.10787,4.68504 -0.13867,7.02734 -0.0525,3.99111 -0.0314,7.98334 -0.0234,11.97461 0.0116,1.12379 0.0209,2.24735 0.0352,3.3711 0.0481,3.78472 0.0893,2.48343 -0.0391,6.69531 -0.0638,2.09241 -0.24643,5.34613 -0.20703,7.45508 0.0223,1.19647 0.13137,2.3911 0.19727,3.58593 0.27854,3.61471 0.73823,7.21264 1.29101,10.79493 0.30127,1.95237 0.46302,3.24283 1.04102,5.0664 0.18085,0.57054 0.43225,1.11572 0.64844,1.67383 0.46988,0.89386 1.00999,1.75184 1.64062,2.54102 5.68539,-1.27854 16.5653,1.59512 26.64844,3.91601 3.56036,-0.0657 7.11765,-0.24391 10.67773,-0.32031 2.90246,-0.0622 5.43107,-0.0592 8.35742,-0.0723 1.01234,-0.003 2.02474,-0.0122 3.03711,-0.0137 0.68883,-2.30659 -0.61675,-6.15543 -4.85546,-12.2832 -2.27245,-3.28521 -1.03135,-1.75863 -3.70118,-4.59766 -1.51399,-1.24446 -2.73179,-2.08408 -4.53906,-2.82031 -0.0964,-0.0393 0.18745,0.0896 0.28125,0.13477 0.37591,0.1399 0.75104,0.28002 1.12695,0.41992 2.27733,0.87908 4.66757,1.33451 7.03516,1.91015 6.00958,1.50392 12.02784,2.97566 18.00977,4.58789 3.30894,0.81391 3.42103,0.8598 6.69335,1.58985 1.20167,0.26808 2.87998,0.71105 4.15626,0.83398 0.82204,0.0792 1.6485,0.10686 2.47265,0.16016 4.15202,0.20865 8.30632,0.53678 12.46485,0.51758 6.45911,-0.38877 12.88642,-1.29376 19.36718,-1.38086 11.71764,-0.51577 23.44869,-0.72338 35.1543,-1.5 4.60585,-0.38486 9.1751,-0.86361 13.74219,-1.56055 0.0242,-0.43723 0.0776,-0.87494 0.0957,-1.31055 0.16499,-13.34546 -0.1257,-26.69382 -0.2168,-40.03906 -0.177,-12.4456 -0.3878,-24.89151 -0.96875,-37.32617 -0.13843,-5.27961 -0.26375,-8.50688 -0.22265,-13.89453 0.0358,-4.68259 0.21286,-9.36143 0.42773,-14.03906 -0.31788,-1.30953 -0.70806,-2.89018 -0.77148,-3.17969 -0.6677,-3.04793 -1.22776,-5.86927 -1.34961,-8.99414 -0.12152,-3.11638 0.12154,-3.90943 0.56445,-6.73438 0.20098,-0.79303 0.41036,-1.60747 0.47656,-2.42578 0.15558,-1.92442 0.0652,-3.86185 0.12891,-5.78906 0.002,-1.62457 0.0182,-2.2664 -0.0391,-3.88281 -0.10769,-3.03524 -0.37601,-6.06933 -0.27344,-9.10938 0.066,-0.93493 0.10117,-1.87238 0.19727,-2.80469 0.21157,-2.05276 0.77596,-4.04872 1.05078,-6.09179 0.0791,-0.48051 0.15283,-0.96233 0.23046,-1.44336 -0.41809,-2.13192 -0.81366,-4.268 -1.08789,-6.43164 -0.64743,-5.10846 -0.68807,-10.28694 -0.73437,-15.42578 0.0276,-1.05884 0.0765,-2.11445 0.11133,-3.17188 -0.0999,-2.21451 -0.21654,-4.42919 -0.16211,-6.64844 0.0332,-0.81372 0.0588,-1.62803 0.0996,-2.4414 0.0199,-0.39707 0.0529,-0.79297 0.082,-1.18946 0.0384,-0.52294 0.0647,-0.99727 0.34375,-1.45117 -0.1795,-0.35331 -0.33136,-0.72303 -0.53906,-1.06054 -0.34239,-0.55637 -0.73501,-1.0785 -1.10743,-1.61524 -0.7592,-1.09424 -1.52654,-2.18384 -2.33789,-3.24023 -0.0413,-0.0541 -0.10334,-0.0969 -0.12304,-0.16211 -0.01,-0.0314 0.11117,0.0662 0.0879,0.043 -0.63741,-0.63512 -1.40656,-1.12981 -2.04492,-1.76368 -0.71684,-0.68247 -1.63181,-1.61282 -2.13672,-2.17968 -2.11072,-2.09099 0.66316,0.6792 -1.3711,-1.36719 -0.0295,-0.0297 -0.0586,-0.0599 -0.0879,-0.0898 -0.69834,-0.16715 -1.40615,-0.29793 -2.125,-0.32813 -1.86348,-0.18432 -3.72792,-0.34317 -5.59961,-0.41797 -2.75528,-0.1299 -5.51358,-0.14994 -8.27148,-0.084 z m 16.90234,1.14258 c 0.0503,0.0205 0.0911,0.0603 0.14258,0.0781 0.0395,0.0137 -0.0709,-0.044 -0.10742,-0.0644 -0.0142,-0.008 -0.0231,-0.007 -0.0352,-0.0137 z m -122.96094,0.56054 c 0.4782,0.22749 1.41546,0.0495 2.15626,0.0547 -0.035,-0.003 -0.0864,-0.0108 -0.11133,-0.0117 -0.68143,-0.0241 -1.36309,-0.034 -2.04493,-0.043 z m 167.35547,244.18946 c -1.74127,1.06596 -3.48209,2.13219 -5.25,3.14648 h 5.25 z" />
    </clipPath>
  </defs>
  <sodipodi:namedview
     id="namedview41"
     pagecolor="#ffffff"
     bordercolor="#000000"
     borderopacity="0.25"
     inkscape:showpageshadow="2"
     inkscape:pageopacity="0.0"
     inkscape:pagecheckerboard="0"
     inkscape:deskcolor="#d1d1d1"
     showgrid="false"
     inkscape:zoom="2"
     inkscape:cx="231"
     inkscape:cy="330.75"
     inkscape:window-width="2560"
     inkscape:window-height="1351"
     inkscape:window-x="-9"
     inkscape:window-y="-9"
     inkscape:window-maximized="1"
     inkscape:current-layer="svg39" />
  <g
     stroke="none"
     stroke-width="1"
     fill="none"
     fill-rule="evenodd"
     id="g37"
     style="display:inline"
     clip-path="url(#clipPath719)">
    <g
       transform="translate(50.3785,42)"
       stroke="currentColor"
       stroke-width="32"
       id="g35"
       inkscape:label="g35">
      <path
         d="m 211.9115,150.31 c -26.90572,-2.65725 -52.57888,11.87961 -64.14179,36.31887 -11.56292,24.43927 -6.52096,53.50833 12.59681,72.6261 19.11778,19.11778 48.18684,24.15974 72.62611,12.59682 24.43926,-11.56291 38.97612,-37.23607 36.31887,-64.14179 -3.04825,-30.34907 -27.05093,-54.35175 -57.4,-57.4 z m 199.005,126.815 c 0.79111,4.43989 -0.0127,9.01651 -2.26946,12.92107 l -35.79307,61.92862 c -2.24679,3.88736 -5.81369,6.83964 -10.05247,8.32031 -4.31902,1.5087 -8.93307,1.97709 -13.46717,1.3671 l -28.81158,-3.87611 c -20.64307,-2.77717 -40.53414,8.82495 -48.27926,28.16046 l -10.55485,26.34991 c -1.71936,4.29234 -4.44897,8.10648 -7.95714,11.11864 -3.44561,2.95845 -7.83687,4.585 -12.37831,4.585 h -71.55631 c -4.48861,0 -8.83606,-1.56878 -12.29038,-4.435 -3.5098,-2.91225 -6.25235,-6.64033 -7.98765,-10.85798 l -11.15999,-27.12449 c -7.90518,-19.21363 -27.8398,-30.61385 -48.408487,-27.68384 l -28.080751,4.0001 C 57.343435,362.54354 52.72865,362.09476 48.4115,360.59 44.172995,359.11265 40.605971,356.16231 38.359859,352.27612 L 2.5659654,290.34607 C 0.30923397,286.44151 -0.49460683,281.86489 0.29650027,277.425 1.1010343,272.90976 2.9939029,268.65863 5.8112486,265.03962 L 23.489643,242.33089 c 12.917146,-16.59267 12.910096,-39.84004 -0.01711,-56.42487 L 5.7391421,163.15513 C 2.9372699,159.56049 1.0644987,155.33072 0.28650027,150.84 c -0.7656188,-4.41927 0.044389,-8.96707 2.28875113,-12.85023 L 38.389034,76.02531 c 2.24679,-3.887363 5.813685,-6.83964 10.052466,-8.32031 4.319968,-1.50903 8.933215,-1.985786 13.470487,-1.392109 l 29.325327,3.837058 C 111.79244,72.839474 131.54697,61.219501 139.18365,41.947037 L 149.57871,15.713338 C 151.28167,11.415623 154.00415,7.5964633 157.5115,4.585 160.95711,1.6265481 165.34837,0 169.88981,0 h 71.55631 c 4.4886,0 8.83606,1.5687841 12.29038,4.435 3.5091,2.9116683 6.24578,6.643995 7.96751,10.866229 l 10.90892,26.752166 c 7.87732,19.317706 27.85718,30.828678 48.52023,27.953896 l 28.23706,-3.92853 c 4.52917,-0.630128 9.14327,-0.173822 13.46128,1.331239 4.23851,1.477348 7.80553,4.427694 10.05164,8.313883 l 35.79389,61.930047 c 2.25674,3.90456 3.06058,8.48118 2.26947,12.92107 -0.80607,4.52388 -2.6319,8.80475 -5.33895,12.51784 l -20.04614,27.49599 c -11.80544,16.19275 -10.97772,38.36571 2.00213,53.63322 l 17.60475,20.70753 c 2.96226,3.48436 4.94595,7.69296 5.74821,12.19542 z"
         id="path33"
         inkscape:label="path33"
         clip-path="url(#clipPath545)" />
    </g>
  </g>
  <g
     inkscape:groupmode="layer"
     id="layer1"
     inkscape:label="wklejony"
     style="display:inline"
     transform="matrix(1.073162,0,0,1.073162,-33.935227,-35.55631)">
    <g
       id="g551"
       transform="translate(12.498786,0.00542154)">
      <rect
         x="263.93781"
         y="228.98131"
         width="190.37975"
         height="247.49367"
         rx="28.556963"
         ry="28.556963"
         fill="none"
         stroke="currentColor"
         stroke-linejoin="round"
         stroke-width="19.038"
         id="rect206" />
      <path
         fill="none"
         stroke="currentColor"
         stroke-linecap="round"
         stroke-linejoin="round"
         stroke-width="19.038"
         d="m 311.53273,276.57623 h 95.18987 m -95.18987,47.59494 h 95.18987 m -95.18987,47.59493 h 47.59494"
         id="path208" />
    </g>
  </g>
</svg>
