<?xml version="1.0" encoding="UTF-8"?>
<svg width="512px" height="512px" version="1.1" viewBox="0 0 512 512" xmlns="http://www.w3.org/2000/svg">
 <path d="m313.81 261.28h102.16m-102.16 51.079h102.16m-102.16 51.079h51.079m-71.505-153.24h143.02c16.979 0 30.647 13.669 30.647 30.647v204.31c0 16.979-13.669 30.647-30.647 30.647h-143.02c-16.979 0-30.647-13.669-30.647-30.647v-204.31c0-16.979 13.669-30.647 30.647-30.647zm7.1588-0.0892c-0.42756-0.41506-0.8609-0.8242-1.2999-1.2273-0.44908-0.41235-0.90408-0.81837-1.3648-1.2179-1.2898-1.1184-2.6249-2.1862-4.0022-3.2002-0.69641-0.5127-1.4036-1.0117-2.1212-1.4965-8.5647-5.7865-18.611-9.5595-29.469-10.65-26.906-2.6572-52.579 11.88-64.142 36.319s-6.521 53.508 12.597 72.626c5.232 5.232 11.209 9.4098 17.633 12.482 5.6264 2.6905 11.595 4.5324 17.706 5.491 1.1893 0.18657 2.384 0.33967 3.5825 0.45906 1.3491 0.13438 2.7032 0.22604 4.06 0.27461 0.82245 0.0294 1.6459 0.043 2.47 0.0407 0.79268-2e-3 1.5859-0.0192 2.3792-0.0509 0.84024-0.0336 1.6806-0.0838 2.5206-0.15074 0.54853-0.0437 1.0969-0.0945 1.645-0.15244m13.99 150.36h-56.559c-4.4886 0-8.8361-1.5688-12.29-4.435-3.5098-2.9122-6.2524-6.6403-7.9876-10.858l-11.16-27.124c-7.9052-19.214-27.84-30.614-48.408-27.684l-28.081 4.0001c-4.5262 0.64475-9.141 0.19597-13.458-1.3088-4.2385-1.4774-7.8055-4.4277-10.052-8.3139l-35.794-61.93c-2.2567-3.9046-3.0606-8.4812-2.2695-12.921 0.80453-4.5152 2.6974-8.7664 5.5147-12.385l17.678-22.709c12.917-16.593 12.91-39.84-0.01711-56.425l-17.733-22.751c-2.8019-3.5946-4.6746-7.8244-5.4526-12.315-0.76562-4.4193 0.04439-8.9671 2.2888-12.85l35.814-61.964c2.2468-3.8874 5.8137-6.8396 10.052-8.3203 4.32-1.509 8.9332-1.9858 13.47-1.3921l29.325 3.8371c20.555 2.6895 40.31-8.9304 47.946-28.203l10.395-26.234c1.703-4.2977 4.4254-8.1169 7.9328-11.128 3.4456-2.9585 7.8369-4.585 12.378-4.585h71.556c4.4886 0 8.8361 1.5688 12.29 4.435 3.5091 2.9117 6.2458 6.644 7.9675 10.866l10.909 26.752c7.8773 19.318 27.857 30.829 48.52 27.954l28.237-3.9285c4.5292-0.63013 9.1433-0.17382 13.461 1.3312 4.2385 1.4773 7.8055 4.4277 10.052 8.3139l35.794 61.93c2.2567 3.9046 3.0606 8.4812 2.2695 12.921-0.80607 4.5239-2.6319 8.8048-5.339 12.518l-4.0435 5.5462-1.8917 2.5947" fill="none" stroke="#000" stroke-linejoin="round" stroke-width="20.432"/>
</svg>
