<?xml version="1.0" encoding="UTF-8" standalone="no"?>
<svg
   class="ionicon"
   viewBox="0 0 512 512"
   version="1.1"
   id="svg1428"
   sodipodi:docname="filter.svg"
   inkscape:version="1.2 (dc2aedaf03, 2022-05-15)"
   xmlns:inkscape="http://www.inkscape.org/namespaces/inkscape"
   xmlns:sodipodi="http://sodipodi.sourceforge.net/DTD/sodipodi-0.dtd"
   xmlns="http://www.w3.org/2000/svg"
   xmlns:svg="http://www.w3.org/2000/svg"
   xmlns:rdf="http://www.w3.org/1999/02/22-rdf-syntax-ns#"
   xmlns:cc="http://creativecommons.org/ns#"
   xmlns:dc="http://purl.org/dc/elements/1.1/">
  <defs
     id="defs1432">
    <clipPath
       clipPathUnits="userSpaceOnUse"
       id="clipPath2219">
      <path
         id="path2221"
         style="fill:#ff0000;fill-opacity:1;fill-rule:nonzero;stroke:none"
         d="m 80,32 v 448 h 286.74219 c -0.54438,-2.99532 -0.9593,-6.16165 -1.22071,-9.50977 -0.15876,-2.03339 -0.31076,-4.06481 -0.38086,-6.10351 -0.20127,-4.12001 -0.34604,-8.23951 -0.28124,-12.36524 0.24344,-15.49655 3.97905,-27.50473 9.5996,-36.04882 0.46005,-3.11195 1.02316,-6.20611 1.91602,-9.23047 0.62969,-2.17947 1.22299,-4.31777 1.66406,-6.57031 0.058,-0.22551 -0.059,-0.67779 0.17383,-0.67579 0.0549,4.9e-4 0.0814,0.056 0.0937,0.13282 0.0196,-0.27194 0.0544,-0.54241 0.0625,-0.81446 0.0324,-1.09815 0.0223,-2.19637 0.0352,-3.29492 0.0412,-3.52281 0.0478,-3.71539 0.10156,-7.2832 0.11425,-6.45634 0.26899,-12.91162 0.49023,-19.36524 0.0279,-5.47303 0.0615,-10.94559 0.15625,-16.41797 0.10167,-5.22357 0.20693,-10.44896 0.53907,-15.66406 0.58009,-9.10834 2.31952,-16.88118 4.83984,-23.43359 -0.0168,-0.23111 -0.0335,-0.46239 -0.0508,-0.69336 -1.11551,-4.78464 -2.02729,-8.18141 -2.46289,-10.64258 -1.7549,2.07104 -3.09261,4.32854 -4.02539,6.88281 -0.24081,0.83279 -0.47435,1.66747 -0.72266,2.49805 -0.11813,0.39514 0.1679,-0.80831 0.28711,-1.20312 0.13303,-0.44059 0.28073,-0.87099 0.43555,-1.29493 0.47669,-1.64852 0.95292,-3.29677 1.42969,-4.94531 0.82258,-1.15821 1.59371,-2.36367 2.3496,-3.58008 -0.22777,-2.63266 0.51408,-3.9014 2.97852,-4.72851 1.33791,-2.0131 2.78073,-3.93407 4.53711,-5.58203 4.83962,-4.54099 10.554,-6.96359 16.58789,-8.26953 0.81895,-0.30167 1.65897,-0.55347 2.49414,-0.80274 4.85558,-1.4492 9.77233,-2.21048 14.76758,-2.11133 1.66508,0.0331 3.34017,0.16158 5.02344,0.39258 1.07038,0.2991 2.44769,0.34104 3.83984,0.37109 V 32 Z" />
    </clipPath>
  </defs>
  <sodipodi:namedview
     id="namedview1430"
     pagecolor="#ffffff"
     bordercolor="#000000"
     borderopacity="0.25"
     inkscape:showpageshadow="2"
     inkscape:pageopacity="0.0"
     inkscape:pagecheckerboard="0"
     inkscape:deskcolor="#d1d1d1"
     showgrid="false"
     inkscape:zoom="1.4183568"
     inkscape:cx="329.25425"
     inkscape:cy="316.21099"
     inkscape:window-width="2560"
     inkscape:window-height="1351"
     inkscape:window-x="-9"
     inkscape:window-y="-9"
     inkscape:window-maximized="1"
     inkscape:current-layer="svg1428" />
  <title
     id="title1422">Reader</title>
  <g
     id="g2226"
     transform="matrix(0.89686231,0,0,0.89686231,-15.748984,9.3838199)">
    <rect
       x="96"
       y="48"
       width="320"
       height="416"
       rx="48"
       ry="48"
       fill="none"
       stroke="currentColor"
       stroke-linejoin="round"
       stroke-width="32"
       id="rect1424"
       clip-path="url(#clipPath2219)" />
    <path
       fill="none"
       stroke="currentColor"
       stroke-linecap="round"
       stroke-linejoin="round"
       stroke-width="32"
       d="m 176,128 h 160 m -160,80 h 160 m -160,80 h 80"
       id="path1426" />
    <path
       d="m 382.1743,517.95327 a 23.934019,23.934019 0 0 0 8.17439,-1.47287 h 0.95736 l 41.24015,-20.25186 a 24.081306,24.081306 0 0 0 15.39142,-22.09295 v -59.13542 a 5.3759489,5.3759489 0 0 1 1.91472,-4.19768 l 67.30983,-52.87576 a 24.228593,24.228593 0 0 0 8.83717,-18.41079 V 294.22541 A 24.007662,24.007662 0 0 0 501.99167,270.21776 H 304.03893 a 24.007662,24.007662 0 0 0 -24.00766,24.00765 v 45.29053 a 24.007662,24.007662 0 0 0 8.1744,18.11622 l 68.41445,53.46492 a 5.5968784,5.5968784 0 0 1 1.54652,3.90309 v 78.87178 a 24.007662,24.007662 0 0 0 24.00766,24.08132 z m 1.54652,-18.63172 a 5.5968784,5.5968784 0 0 1 -7.36432,-5.4496 v -78.87178 a 23.934019,23.934019 0 0 0 -8.24803,-18.04258 l -68.41448,-53.53857 a 5.5968784,5.5968784 0 0 1 -1.47286,-3.90308 v -45.29053 a 5.5968784,5.5968784 0 0 1 5.59687,-5.59687 h 198.17367 a 5.5968784,5.5968784 0 0 1 5.59688,5.59687 v 45.29053 a 5.6705214,5.6705214 0 0 1 -1.91471,4.27131 l -67.6044,52.80212 a 24.302235,24.302235 0 0 0 -8.54261,18.4108 v 58.47264 a 5.7441644,5.7441644 0 0 1 -3.75578,5.3023 l -0.88374,0.36823 z"
       id="path1793"
       style="stroke-width:7.36432" />
  </g>
  <metadata
     id="metadata2228">
    <rdf:RDF>
      <cc:Work
         rdf:about="">
        <dc:title>Reader</dc:title>
      </cc:Work>
    </rdf:RDF>
  </metadata>
</svg>
