<?xml version="1.0" encoding="UTF-8"?>
<svg class="ionicon" version="1.1" viewBox="0 0 512 512" xmlns="http://www.w3.org/2000/svg" xmlns:cc="http://creativecommons.org/ns#" xmlns:dc="http://purl.org/dc/elements/1.1/" xmlns:rdf="http://www.w3.org/1999/02/22-rdf-syntax-ns#">
 <title>Reader</title>
 <metadata>
  <rdf:RDF>
   <cc:Work rdf:about="">
    <dc:title>Reader</dc:title>
   </cc:Work>
  </rdf:RDF>
 </metadata>
 <g transform="translate(-87.815)">
  <path d="m457.29 493.05a21.466 21.466 0 0 1-7.3313-1.321h-0.85862l-36.987-18.163a21.598 21.598 0 0 1-13.804-19.814v-53.036a4.8215 4.8215 0 0 0-1.7172-3.7647l-60.368-47.422a21.73 21.73 0 0 1-7.9257-16.512v-40.619a21.532 21.532 0 0 1 21.532-21.532h177.54a21.532 21.532 0 0 1 21.532 21.532v40.619a21.532 21.532 0 0 1-7.3313 16.248l-61.358 47.951a5.0196 5.0196 0 0 0-1.387 3.5005v70.737a21.532 21.532 0 0 1-21.532 21.598zm-1.387-16.71a5.0196 5.0196 0 0 0 6.6048-4.8875v-70.737a21.466 21.466 0 0 1 7.3974-16.182l61.358-48.017a5.0196 5.0196 0 0 0 1.321-3.5005v-40.619a5.0196 5.0196 0 0 0-5.0196-5.0196h-177.73a5.0196 5.0196 0 0 0-5.0196 5.0196v40.619a5.0857 5.0857 0 0 0 1.7172 3.8308l60.632 47.356a21.796 21.796 0 0 1 7.6616 16.512v52.442a5.1517 5.1517 0 0 0 3.3684 4.7554l0.79259 0.33025z" stroke-width="6.6048"/>
  <path d="m404.77 404.74c-2.6881 0.52683-5.4661 0.80292-8.3086 0.80292h-200.45c-23.723 0-42.955-19.231-42.955-42.955v-286.36c0-23.723 19.231-42.955 42.955-42.955h88.37c7.5922 0.0011 14.873 3.0172 20.242 8.3851l126.41 126.41c5.3679 5.3691 8.3839 12.65 8.3851 20.242v94.865" fill="none" stroke="currentColor" stroke-linejoin="round" stroke-width="28.636"/>
  <path d="m296.23 40.425v107.39c0 15.815 12.821 28.636 28.636 28.636h107.39m-207.61 71.591h143.18m-143.18 71.591h102.72" fill="none" stroke="currentColor" stroke-linecap="round" stroke-linejoin="round" stroke-width="28.636"/>
 </g>
</svg>
